<?xml version="1.0" encoding="utf-8"?><svg viewBox="0 0 27 23" xmlns="http://www.w3.org/2000/svg" xmlns:xlink="http://www.w3.org/1999/xlink"><style>:root>svg{display:none}:root>svg:target{display:block}</style><svg fill="none" viewBox="0 0 12 12" id="cross" xmlns="http://www.w3.org/2000/svg"><path d="M11.842 1.44a.446.446 0 010 .64L8.286 5.712a.446.446 0 000 .64l3.579 3.588a.446.446 0 010 .64l-1.3 1.292a.478.478 0 01-.65 0L6.315 8.296a.456.456 0 00-.65 0L2.085 11.86a.478.478 0 01-.65 0l-1.299-1.28a.458.458 0 010-.651l3.59-3.6a.457.457 0 000-.651L.136 2.09a.457.457 0 010-.65L1.446.135a.456.456 0 01.65 0l3.602 3.589a.478.478 0 00.65 0L9.893.148a.456.456 0 01.65 0l1.3 1.291z" fill="#000"/></svg><svg fill="none" viewBox="0 0 14 14" id="login" xmlns="http://www.w3.org/2000/svg"><g opacity=".3" fill="#fff"><path d="M6.325 8.088l-.082.081L4.79 9.65a1.266 1.266 0 00-.363.943 1.199 1.199 0 00.672 1.007c.192.092.404.132.616.114.305-.02.592-.155.803-.378l1.88-1.9 1.79-1.756a1.168 1.168 0 00.102-1.48c-.143-.174-.296-.327-.448-.49L6.355 2.246A1.137 1.137 0 005.34 1.96a1.097 1.097 0 00-.712.418c-.165.191-.261.432-.274.684a1.21 1.21 0 00.396 1.022l1.606 1.613H1.04c-.29.05-.554.201-.742.429a1.196 1.196 0 00-.274 1.021c.059.25.198.472.396.633.216.198.5.305.793.296h5.082l.03.01zm5.286-1.083v4.013a.605.605 0 01-.265.51.679.679 0 01-.416.113H9.639a1.22 1.22 0 00-.671.429 1.197 1.197 0 00.203 1.685c.199.16.447.247.701.245h1.668c.258-.041.509-.124.742-.245.228-.114.44-.259.63-.429.294-.244.539-.542.721-.878a2.89 2.89 0 00.356-1.45V2.645a2.652 2.652 0 00-.264-.92A3.111 3.111 0 0012.84.634 2.91 2.91 0 0011.03 0H9.69a1.208 1.208 0 00-.66.378 1.167 1.167 0 00-.132 1.43 1.161 1.161 0 001.016.571h1.2a.639.639 0 01.559.572v4.023l-.061.031z"/><path d="M6.325 8.088H1.242A1.125 1.125 0 01.45 7.79a1.164 1.164 0 01-.426-.643 1.2 1.2 0 01.274-1.021 1.24 1.24 0 01.742-.45h5.316l-.081-.081-1.525-1.511a1.205 1.205 0 01-.396-1.022c.013-.252.11-.493.274-.684.174-.227.43-.377.712-.418a1.134 1.134 0 011.016.286l3.446 3.43c.153.154.305.317.447.49a1.168 1.168 0 01-.101 1.481L8.398 9.435l-1.87 1.9a1.217 1.217 0 01-.803.378 1.184 1.184 0 01-1.088-.525 1.199 1.199 0 01-.07-1.211c.06-.121.138-.231.233-.327l1.454-1.48.081-.072-.01-.01z"/><path d="M11.61 7.005V2.982a.645.645 0 00-.518-.582h-1.2a1.155 1.155 0 01-1.016-.572 1.158 1.158 0 01-.183-.684c.02-.293.15-.568.366-.766.174-.194.406-.327.66-.378h1.343a2.91 2.91 0 011.81.633c.359.272.654.621.863 1.021.143.288.233.6.264.92v8.373a2.89 2.89 0 01-.355 1.45 3 3 0 01-.722.878c-.19.17-.402.315-.63.429a2.44 2.44 0 01-.742.245H9.883a1.104 1.104 0 01-.712-.204 1.186 1.186 0 01-.213-1.634c.17-.214.405-.365.67-.429h1.291a.679.679 0 00.417-.112.602.602 0 00.264-.51V6.973l.01.031z"/></g></svg><svg fill="none" viewBox="0 0 11 23" id="social-fb" xmlns="http://www.w3.org/2000/svg"><path d="M3.624 1.131A5.46 5.46 0 017.087.001H11v3.86H8.47a1.216 1.216 0 00-.753.22 1.076 1.076 0 00-.427.62v2.58H11c-.086 1.24-.279 2.48-.44 3.72H7.344v11H2.402v-11H0v-3.7h2.38v-3.59a3.768 3.768 0 011.244-2.58z" fill="currentColor"/></svg><svg fill="none" viewBox="0 0 20 20" id="social-insta" xmlns="http://www.w3.org/2000/svg"><path d="M18 0H2a2 2 0 00-2 2v16a2 2 0 002 2h16a2 2 0 002-2V2a2 2 0 00-2-2zm-8 6a4 4 0 110 8 4 4 0 010-8zM2.5 18a.47.47 0 01-.5-.44V9h2.1a3.37 3.37 0 00-.1 1 6 6 0 1012 0 3.372 3.372 0 00-.1-1H18v8.5a.47.47 0 01-.44.5H2.5zM18 4.5a.47.47 0 01-.44.5H15.5a.47.47 0 01-.5-.44V2.5a.47.47 0 01.44-.5h2.06a.47.47 0 01.5.44V4.5z" fill="currentColor"/></svg><svg fill="none" viewBox="0 0 27 15" id="social-vk" xmlns="http://www.w3.org/2000/svg"><path d="M26.785 13.47l-.092-.168a13.489 13.489 0 00-2.68-2.98c-.395-.354-.771-.729-1.126-1.122a.967.967 0 01-.215-1.182 9.844 9.844 0 011.248-1.777l.91-1.162c1.618-2.085 2.3-3.41 2.047-3.972l-.092-.129a.815.815 0 00-.409-.218 2.287 2.287 0 00-.9 0h-3.98a.442.442 0 00-.277 0h-.307a.506.506 0 00-.153.139.992.992 0 00-.154.238 22.97 22.97 0 01-1.494 3.059c-.348.556-.665.993-.962 1.46a7 7 0 01-.747.883c-.17.17-.352.329-.542.477-.153.119-.276.169-.358.149l-.235-.05a.924.924 0 01-.318-.338 1.321 1.321 0 01-.163-.526V1.614c.02-.205.02-.411 0-.616a2.186 2.186 0 00-.144-.437.74.74 0 00-.286-.338 1.909 1.909 0 00-.512-.178 9.94 9.94 0 00-1.882 0 9.287 9.287 0 00-3.346.308c-.203.1-.384.239-.532.407-.174.198-.195.307-.072.327.235.011.465.069.677.17.21.1.398.242.55.416l.083.16c.092.203.16.416.204.635.061.328.102.66.123.993.041.565.041 1.132 0 1.698 0 .476-.092.844-.133 1.102a2 2 0 01-.276.675c-.045.108-.1.21-.164.308l-.072.07c-.12.043-.249.066-.378.07a.97.97 0 01-.41-.23 3.623 3.623 0 01-.583-.525 7.732 7.732 0 01-.675-.924c-.288-.46-.551-.934-.788-1.42l-.235-.387-.583-1.113c-.238-.465-.45-.942-.635-1.43A.907.907 0 005.38.92h-.072a.882.882 0 00-.184-.16A1.657 1.657 0 004.755.67L.918.7A1.052 1.052 0 00.12.978H.008a.78.78 0 000 .219c.011.125.039.248.082.367A36.205 36.205 0 001.93 5.288a43.045 43.045 0 001.71 2.86c.48.725 1.022 1.41 1.513 2.056.492.645.88 1.062 1.024 1.24l.378.408.348.338c.323.28.665.539 1.023.774.473.335.965.644 1.474.924.58.312 1.2.552 1.842.715a6.504 6.504 0 002.066.278h1.617c.28-.003.547-.11.747-.298v-.07c.045-.078.079-.162.102-.248a2.21 2.21 0 000-.367 4.54 4.54 0 01.092-1.053c.042-.245.12-.483.236-.705.077-.15.177-.287.297-.407l.235-.199h.112a.937.937 0 01.799.209c.317.228.602.495.849.794.266.308.593.665.962 1.043.309.325.652.617 1.023.874l.286.159c.228.129.473.229.727.298.249.087.517.11.777.069l3.633-.1c.284.018.567-.04.819-.168a.663.663 0 00.347-.368.868.868 0 000-.456 1.514 1.514 0 00-.102-.368l-.082-.05z" fill="currentColor"/></svg></svg>